
<svg width="48px" height="48px" viewBox="0 0 48 48" version="1.1" xmlns="http://www.w3.org/2000/svg" xmlns:xlink="http://www.w3.org/1999/xlink">
    <g id="页面-1" stroke="none" stroke-width="1" fill="none" fill-rule="evenodd">
        <g id="1.-赛事评测备份-2" transform="translate(-862.000000, -315.000000)" fill-rule="nonzero">
            <g id="编组-69" transform="translate(730.075270, 234.500000)">
                <g id="编组-76" transform="translate(132.454147, 81.000000)">
                    <path d="M27.8980977,4.30992756 C30.850406,10.0564976 35.3958228,13.5082328 41.5343482,14.6714549 C47.6728736,15.834677 48.5832213,18.7743416 44.2717133,23.4904486 C39.9602052,28.2065556 38.2280158,33.7887574 39.0688231,40.2560194 C39.9033085,46.7232815 37.5136457,48.5376551 31.8998347,45.7054621 C26.2860236,42.8732692 20.6658907,42.8732692 15.0457578,45.7054621 C9.42562494,48.5376551 7.04228399,46.7169596 7.87676941,40.2560194 C8.71125484,33.7887574 6.9790654,28.2002338 2.66755737,23.4904486 C-1.64395066,18.7743416 -0.727281064,15.834677 5.40492244,14.6714549 C11.5434478,13.5082328 16.0888646,10.0564976 19.0411729,4.30992756 C21.9871593,-1.43664252 24.9457895,-1.43664252 27.8980977,4.30992756 L27.8980977,4.30992756 Z" id="路径备份-7" fill="#D4DBE2"></path>
                    <g id="编组-62" transform="translate(11.098493, 16.213469)">
                        <path d="M0,4.95820851 C0,6.96363648 1.20805209,8.77160407 3.06082333,9.53905445 C4.91359457,10.3065048 7.04623119,9.88230081 8.46428291,8.46424909 C9.88233463,7.04619737 10.3065386,4.91356075 9.53908827,3.06078951 C8.77163789,1.20801827 6.9636703,0 4.95824232,0 C2.2198807,0 0,2.2198807 0,4.95824232 L0,4.95820851 Z" id="路径" fill="#FFFFFF"></path>
                        <path d="M14.8275517,4.95820851 C14.8275517,6.9636334 16.0355663,8.77159886 17.8883334,9.53905122 C19.7411005,10.3065036 21.8737344,9.88230576 23.2917888,8.46426105 C24.7098432,7.04621634 25.1340556,4.91358527 24.3666158,3.06081294 C23.5991761,1.20804062 21.7912189,0 19.785794,0 C17.0474324,0 14.8275517,2.2198807 14.8275517,4.95824232 L14.8275517,4.95820851 Z" id="路径" fill="#FFFFFF"></path>
                        <path d="M9.06027248,20.7320088 C7.43926639,20.7324295 5.83426434,20.4114337 4.33810956,19.7875894 C3.90344335,19.6137174 3.69202795,19.1203997 3.86590003,18.6857335 C4.03977212,18.2510674 4.53308988,18.039652 4.96775608,18.2135241 L4.92051315,18.2135241 C7.49392664,19.257532 10.366665,19.2912661 12.9638848,18.3079761 C15.5439988,17.3704166 17.6190294,15.4037024 18.6934348,12.8775082 C18.7734375,12.6742757 18.9327963,12.5124153 19.134758,12.4292568 C19.3367197,12.3460984 19.5638466,12.348822 19.7637561,12.4367996 C20.1830961,12.6172452 20.3795294,13.1012229 20.2045662,13.5228797 C18.9463624,16.4485905 16.53774,18.7262412 13.5463222,19.8190734 C12.1066306,20.3584801 10.5819699,20.6356838 9.04454738,20.6375563 L9.06027248,20.7320088 Z" id="路径" fill="#889AAB" transform="translate(12.036760, 16.550402) rotate(19.000000) translate(-12.036760, -16.550402) "></path>
                        <path d="M2.4397915,4.95820851 C2.44667898,5.85707777 2.93508677,6.68321323 3.71932201,7.12251779 C4.50355724,7.56182235 5.46314915,7.54681199 6.23326047,7.08319366 C6.9320964,6.70239292 7.37131272,5.97437294 7.38234649,5.17859663 L7.38234649,4.87951537 C7.38776642,3.91101015 6.80119746,3.03739737 5.9026952,2.67583709 C5.13526781,2.34843584 4.25480114,2.42766907 3.55815582,2.88682228 C2.8615105,3.3459755 2.44152076,4.12386242 2.4397915,4.95820851 L2.4397915,4.95820851 Z" id="路径" fill="#889AAB"></path>
                        <path d="M17.2515843,4.95820851 C17.2634821,5.86976132 17.7611049,6.70562176 18.556782,7.15055786 C19.352459,7.59549396 20.3251378,7.5818142 21.1079874,7.11467767 C21.8155049,6.72505048 22.2600191,5.98620238 22.2727946,5.17859663 L22.2727946,4.87951537 C22.2865753,3.9442863 21.7505704,3.08792273 20.9033582,2.691596 C20.1191385,2.30626531 19.1917299,2.35210936 18.4493362,2.81290426 C17.7069425,3.27369916 17.2542956,4.0844391 17.2515843,4.95820851 L17.2515843,4.95820851 Z" id="路径" fill="#889AAB"></path>
                    </g>
                </g>
            </g>
        </g>
    </g>
</svg>

