
<svg width="48px" height="48px" viewBox="0 0 48 48" version="1.1" xmlns="http://www.w3.org/2000/svg" xmlns:xlink="http://www.w3.org/1999/xlink">
    <g id="页面-1" stroke="none" stroke-width="1" fill="none" fill-rule="evenodd">
        <g id="1.-赛事评测备份-2" transform="translate(-928.000000, -315.000000)" fill-rule="nonzero">
            <g id="编组-69" transform="translate(730.075270, 234.500000)">
                <g id="编组-77" transform="translate(198.681220, 81.000000)">
                    <path d="M27.8980977,4.30992756 C30.850406,10.0564976 35.3958228,13.5082328 41.5343482,14.6714549 C47.6728736,15.834677 48.5832213,18.7743416 44.2717133,23.4904486 C39.9602052,28.2065556 38.2280158,33.7887574 39.0688231,40.2560194 C39.9033085,46.7232815 37.5136457,48.5376551 31.8998347,45.7054621 C26.2860236,42.8732692 20.6658907,42.8732692 15.0457578,45.7054621 C9.42562494,48.5376551 7.04228399,46.7169596 7.87676941,40.2560194 C8.71125484,33.7887574 6.9790654,28.2002338 2.66755737,23.4904486 C-1.64395066,18.7743416 -0.727281064,15.834677 5.40492244,14.6714549 C11.5434478,13.5082328 16.0888646,10.0564976 19.0411729,4.30992756 C21.9871593,-1.43664252 24.9457895,-1.43664252 27.8980977,4.30992756 L27.8980977,4.30992756 Z" id="路径备份-6" fill="#D4DBE2"></path>
                    <g id="编组-62备份" transform="translate(9.824895, 16.213469)">
                        <path d="M18.6717248,6.24544519 C19.6391486,5.03720343 21.416219,4.04901944 22.2175614,4.04901944 C23.2472658,4.04901944 25.25685,5.19913273 26.1578413,6.77275345 C26.2657942,6.95959496 26.4650918,7.0758519 26.6809975,7.08000393 C26.8969033,7.08000393 27.1003529,6.96789903 27.2083058,6.78105752 C27.3162586,6.59421601 27.3204107,6.36170213 27.2124578,6.17486062 C26.0914087,4.21510078 23.6832293,2.83662565 22.2175614,2.83662565 C21.0176238,2.83662565 18.9083907,4.00749911 17.7250612,5.48562305 C17.5216115,5.74720116 17.5672839,6.12503622 17.82471,6.33263789 C18.082136,6.54023957 18.4599711,6.49871923 18.6717248,6.24544519 L18.6717248,6.24544519 Z" id="路径" fill="#889AAB"></path>
                        <path d="M8.61965158,6.24544519 C7.65222776,5.03720343 5.87515741,4.04901944 5.07381493,4.04901944 C4.04411061,4.04901944 2.03452637,5.19913273 1.13353509,6.77275345 C1.02558222,6.95959496 0.826284611,7.0758519 0.610378867,7.08000393 C0.394473122,7.08000393 0.191023478,6.96789903 0.0830706061,6.78105752 C-0.0248822661,6.59421601 -0.0290342997,6.36170213 0.0789185726,6.17486062 C1.19996763,4.21510078 3.60814709,2.83662565 5.07381493,2.83662565 C6.27375263,2.83662565 8.38298567,4.00749911 9.56631523,5.48562305 C9.76976487,5.74720116 9.7240925,6.12503622 9.46666642,6.33263789 C9.20924034,6.54023957 8.83140529,6.49871923 8.61965158,6.24544519 L8.61965158,6.24544519 Z" id="路径" fill="#889AAB"></path>
                        <g id="编组-66" transform="translate(3.168589, 12.641993)">
                            <path d="M10.4770988,10.4625343 C5.20559107,10.4625343 0.819374744,6.63968526 0.0145644094,1.60962067 C-0.106157141,0.764569818 0.537691127,0 1.42298249,0 L19.531215,0 C20.4165064,0 21.0603547,0.764569818 20.9396331,1.60962067 C20.1348228,6.63968526 15.7486064,10.4625343 10.4770988,10.4625343 L10.4770988,10.4625343 Z" id="路径备份-10" fill="#889AAB"></path>
                            <path d="M19.531215,0 L1.42298249,0 C0.537691127,0 -0.106157141,0.764569818 0.0145644094,1.60962067 C0.0548049261,1.89130429 0.0950454428,2.1729879 0.175526476,2.45467152 L20.7384305,2.45467152 C20.8189116,2.1729879 20.8591521,1.89130429 20.8993926,1.60962067 C21.0603547,0.764569818 20.3762659,0 19.531215,0 Z" id="路径备份-11" fill="#FFFFFF"></path>
                            <path d="M13.454897,4.86910252 C12.2476815,4.86910252 11.1611875,5.47271027 10.4770988,6.39824216 C9.79595536,5.4303156 8.68282496,4.8587081 7.49930052,4.86910252 C5.60799623,4.86910252 4.03861608,6.31776112 3.87765401,8.16882489 C5.68847727,9.6174835 7.98218672,10.4625343 10.4770988,10.4625343 C12.9720108,10.4625343 15.2657202,9.6174835 17.0765435,8.16882489 C16.9155814,6.31776112 15.3462013,4.86910252 13.454897,4.86910252 L13.454897,4.86910252 Z" id="路径备份-12" fill="#A5B4C3"></path>
                        </g>
                    </g>
                </g>
            </g>
        </g>
    </g>
</svg>

