
<svg width="130px" height="130px" viewBox="0 0 130 130" version="1.1" xmlns="http://www.w3.org/2000/svg" xmlns:xlink="http://www.w3.org/1999/xlink">
    <g id="页面-1" stroke="none" stroke-width="1" fill="none" fill-rule="evenodd">
        <g id="编组-76" transform="translate(0.518416, 0.419160)" fill-rule="nonzero">
            <path d="M76.6673436,11.8442017 C84.7806435,27.6364707 97.2719982,37.122256 114.141408,40.3189309 C131.010817,43.5156058 133.512563,51.5941593 121.664018,64.5545912 C109.815473,77.5150232 105.055207,92.8555881 107.365847,110.628406 C109.659113,128.401223 103.092031,133.387341 87.6646002,125.604133 C72.2371692,117.820924 56.7923649,117.820924 41.3475606,125.604133 C25.9027563,133.387341 19.3530473,128.38385 21.6463141,110.628406 C23.9395809,92.8555881 19.179315,77.4976499 7.33076998,64.5545912 C-4.51777506,51.5941593 -1.99865624,43.5156058 14.8533799,40.3189309 C31.7227894,37.122256 44.214144,27.6364707 52.3274439,11.8442017 C60.4233706,-3.94806724 68.5540437,-3.94806724 76.6673436,11.8442017 L76.6673436,11.8442017 Z" id="路径备份-7" fill="#FED63A"></path>
            <g id="编组-62" transform="translate(30.500000, 44.556572)">
                <path d="M0,13.6257561 C0,19.1369145 3.3198731,24.1054279 8.41151236,26.2144743 C13.5031516,28.3235206 19.3638947,27.1577567 23.2608722,23.2607793 C27.1578497,19.3638018 28.3236136,13.5030587 26.2145672,8.41141942 C24.1055208,3.31978017 19.1370074,0 13.625849,0 C6.10050041,0 0,6.10050041 0,13.625849 L0,13.6257561 Z" id="路径" fill="#FFFFFF"></path>
                <path d="M40.7479037,13.6257561 C40.7479037,19.136906 44.0676738,24.1054136 49.1593016,26.2144654 C54.2509295,28.3235172 60.1116653,27.1577703 64.0086501,23.2608121 C67.9056349,19.3638539 69.0714217,13.503126 66.9624046,8.41148382 C64.8533875,3.31984159 59.8849026,0 54.3737527,0 C46.8484041,0 40.7479037,6.10050041 40.7479037,13.625849 L40.7479037,13.6257561 Z" id="路径" fill="#FFFFFF"></path>
                <path d="M24.898723,56.9740685 C20.4440024,56.9752247 16.0332628,56.0930894 11.9216487,54.3786897 C10.7271334,53.9008682 10.1461384,52.5451713 10.6239599,51.3506561 C11.1017814,50.1561408 12.4574782,49.5751457 13.6519934,50.0529672 L13.5221641,50.0529672 C20.5942154,52.9220277 28.4888476,53.0147331 35.6263213,50.3125329 C42.7167863,47.7360056 48.4192211,42.3312367 51.3718171,35.3889486 C51.5916742,34.8304412 52.0296113,34.385629 52.5846266,34.1570995 C53.1396418,33.92857 53.7638139,33.936055 54.3131893,34.1778281 C55.4655863,34.6737143 56.0054087,36.0037437 55.5245886,37.1625078 C52.0668928,45.2027158 45.4477072,51.461976 37.2269297,54.4652115 C33.2704832,55.9475664 29.0805314,56.7093557 24.8555085,56.7145017 L24.898723,56.9740685 Z" id="路径" fill="#873A18" transform="translate(33.078470, 45.482505) rotate(19.000000) translate(-33.078470, -45.482505) "></path>
                <path d="M6.70484186,13.6257561 C6.72376949,16.0959575 8.06597311,18.3662775 10.2211463,19.5735395 C12.3763195,20.7808015 15.013394,20.7395513 17.129753,19.4654721 C19.0502385,18.4189856 20.257258,16.4182987 20.2875802,14.2314093 L20.2875802,13.4094979 C20.3024748,10.7479285 18.6905124,8.34713499 16.2213196,7.35352365 C14.1123365,6.45378545 11.6927077,6.67152795 9.77824215,7.93333646 C7.86377663,9.19514498 6.70959405,11.3328722 6.70484186,13.6257561 L6.70484186,13.6257561 Z" id="路径" fill="#873A18"></path>
                <path d="M47.4094381,13.6257561 C47.4421348,16.1308134 48.8096625,18.4278589 50.9962791,19.650597 C53.1828958,20.8733352 55.8559346,20.8357415 58.0073,19.5519939 C59.9516434,18.4812513 61.1732222,16.4508075 61.2083309,14.2314093 L61.2083309,13.4094979 C61.2462018,10.8393754 59.7731956,8.48598478 57.4449543,7.39683106 C55.2898237,6.33789574 52.7411927,6.46388075 50.7010051,7.7302008 C48.6608176,8.99652085 47.4168892,11.2245322 47.4094381,13.6257561 L47.4094381,13.6257561 Z" id="路径" fill="#873A18"></path>
            </g>
        </g>
    </g>
</svg>

