
<svg width="48px" height="48px" viewBox="0 0 48 48" version="1.1" xmlns="http://www.w3.org/2000/svg" xmlns:xlink="http://www.w3.org/1999/xlink">
    <g id="页面-1" stroke="none" stroke-width="1" fill="none" fill-rule="evenodd">
        <g id="1.-赛事评测备份-2" transform="translate(-994.000000, -315.000000)" fill-rule="nonzero">
            <g id="编组-69" transform="translate(730.075270, 234.500000)">
                <g id="编组-78" transform="translate(264.908293, 81.000000)">
                    <path d="M27.8980977,4.30992756 C30.850406,10.0564976 35.3958228,13.5082328 41.5343482,14.6714549 C47.6728736,15.834677 48.5832213,18.7743416 44.2717133,23.4904486 C39.9602052,28.2065556 38.2280158,33.7887574 39.0688231,40.2560194 C39.9033085,46.7232815 37.5136457,48.5376551 31.8998347,45.7054621 C26.2860236,42.8732692 20.6658907,42.8732692 15.0457578,45.7054621 C9.42562494,48.5376551 7.04228399,46.7169596 7.87676941,40.2560194 C8.71125484,33.7887574 6.9790654,28.2002338 2.66755737,23.4904486 C-1.64395066,18.7743416 -0.727281064,15.834677 5.40492244,14.6714549 C11.5434478,13.5082328 16.0888646,10.0564976 19.0411729,4.30992756 C21.9871593,-1.43664252 24.9457895,-1.43664252 27.8980977,4.30992756 L27.8980977,4.30992756 Z" id="路径备份-5" fill="#D4DBE2"></path>
                    <g id="编组-61" transform="translate(5.094390, 13.819657)">
                        <g id="编组-64" transform="translate(7.905602, 15.035804)">
                            <path d="M10.4770988,10.4625343 C5.20559107,10.4625343 0.819374744,6.63968526 0.0145644094,1.60962067 C-0.106157141,0.764569818 0.537691127,0 1.42298249,0 L19.531215,0 C20.4165064,0 21.0603547,0.764569818 20.9396331,1.60962067 C20.1348228,6.63968526 15.7486064,10.4625343 10.4770988,10.4625343 L10.4770988,10.4625343 Z" id="路径" fill="#889AAB"></path>
                            <path d="M19.531215,0 L1.42298249,0 C0.537691127,0 -0.106157141,0.764569818 0.0145644094,1.60962067 C0.0548049261,1.89130429 0.0950454428,2.1729879 0.175526476,2.45467152 L20.7384305,2.45467152 C20.8189116,2.1729879 20.8591521,1.89130429 20.8993926,1.60962067 C21.0603547,0.764569818 20.3762659,0 19.531215,0 Z" id="路径" fill="#FFFFFF"></path>
                            <path d="M13.454897,4.86910252 C12.2476815,4.86910252 11.1611875,5.47271027 10.4770988,6.39824216 C9.79595536,5.4303156 8.68282496,4.8587081 7.49930052,4.86910252 C5.60799623,4.86910252 4.03861608,6.31776112 3.87765401,8.16882489 C5.68847727,9.6174835 7.98218672,10.4625343 10.4770988,10.4625343 C12.9720108,10.4625343 15.2657202,9.6174835 17.0765435,8.16882489 C16.9155814,6.31776112 15.3462013,4.86910252 13.454897,4.86910252 L13.454897,4.86910252 Z" id="路径" fill="#A5B4C3"></path>
                        </g>
                        <path d="M3.81563326,11.1359147 C5.14357031,12.0212061 6.55198839,12.6650543 7.63848235,12.9869785 C8.28233061,13.188181 8.76521681,13.2686621 9.04690043,13.188181 C9.77122973,13.0674595 11.7430151,11.5383199 13.2319142,9.4860535 C14.2379271,8.11787593 15.0427374,6.50825526 15.163459,4.8986346 C15.2841805,3.36949496 14.6805728,1.88059584 13.3526357,0.955063957 C12.4673444,0.351456206 11.3406099,0.069772589 10.2138754,0.270975173 C8.80545733,0.512418273 7.71896338,1.39770964 7.15559615,2.56468463 C6.51174788,1.96107687 5.66669703,1.51843119 4.78140566,1.39770964 C3.21202551,1.19650706 1.64264536,1.88059584 0.757353987,3.12805186 C-0.168177897,4.41574839 -0.208418414,6.02536906 0.435429854,7.43378715 C1.07927812,8.92268627 2.36697466,10.1701423 3.81563326,11.1359147 Z" id="路径" fill="#889AAB"></path>
                        <path d="M23.6944485,9.40557247 C24.6199804,10.693269 25.7467149,11.8200035 26.5917657,12.4638517 C27.1148924,12.8662569 27.5575381,13.1077 27.8392217,13.1479405 C28.563551,13.2686621 30.897501,12.5040923 32.9900079,11.0554337 C34.398426,10.0896613 35.6861225,8.84220523 36.3299708,7.35330611 C36.973819,5.90464751 36.893338,4.29502684 36.0080466,2.96708979 C35.4044389,2.08179842 34.4386665,1.43795016 33.311932,1.23674757 C31.9437544,0.995304474 30.6158174,1.47819067 29.6902855,2.40372256 C29.2878803,1.59891222 28.6842726,0.91482344 27.8794623,0.472177756 C26.5112847,-0.252151545 24.821183,-0.131429995 23.5334864,0.753861373 C22.2457899,1.67939326 21.6421822,3.20853289 21.7629037,4.73767253 C21.9238658,6.38753371 22.6884356,8.0373949 23.6944485,9.40557247 L23.6944485,9.40557247 Z" id="路径" fill="#889AAB"></path>
                    </g>
                </g>
            </g>
        </g>
    </g>
</svg>

