<svg width="48px" height="48px" viewBox="0 0 48 48" version="1.1" xmlns="http://www.w3.org/2000/svg" xmlns:xlink="http://www.w3.org/1999/xlink">
    <g id="页面-1" stroke="none" stroke-width="1" fill="none" fill-rule="evenodd">
        <g id="1.-赛事评测备份-2" transform="translate(-730.000000, -315.000000)" fill-rule="nonzero">
            <g id="编组-69" transform="translate(730.075270, 234.500000)">
                <g id="编组-74" transform="translate(0.000000, 81.000000)">
                    <path d="M27.8980977,4.30992756 C30.850406,10.0564976 35.3958228,13.5082328 41.5343482,14.6714549 C47.6728736,15.834677 48.5832213,18.7743416 44.2717133,23.4904486 C39.9602052,28.2065556 38.2280158,33.7887574 39.0688231,40.2560194 C39.9033085,46.7232815 37.5136457,48.5376551 31.8998347,45.7054621 C26.2860236,42.8732692 20.6658907,42.8732692 15.0457578,45.7054621 C9.42562494,48.5376551 7.04228399,46.7169596 7.87676941,40.2560194 C8.71125484,33.7887574 6.9790654,28.2002338 2.66755737,23.4904486 C-1.64395066,18.7743416 -0.727281064,15.834677 5.40492244,14.6714549 C11.5434478,13.5082328 16.0888646,10.0564976 19.0411729,4.30992756 C21.9871593,-1.43664252 24.9457895,-1.43664252 27.8980977,4.30992756 L27.8980977,4.30992756 Z" id="路径备份-9" fill="#D4DBE2"></path>
                    <g id="编组-73" transform="translate(9.279068, 18.009115)" fill="#889AAB">
                        <path d="M8.57044144,18.1713103 C9.63357109,16.098115 11.9862776,14.8085381 14.3161542,14.8085381 C16.6361586,14.8085381 18.8845882,16.0882426 19.7977814,18.1441613 C19.9361349,18.455627 20.3007854,18.5959621 20.612251,18.4576087 C20.9237167,18.3192552 21.0640518,17.9546048 20.9256984,17.6431391 C19.8021006,15.1133472 17.0976913,13.5744933 14.3161542,13.5744933 C11.5438725,13.5744933 8.75678219,15.1010068 7.47214153,17.6092029 C7.37162048,17.8053953 7.38340259,18.0403119 7.50304966,18.2254618 C7.62269673,18.4106118 7.83203151,18.5178665 8.05219963,18.5068241 C8.27236774,18.4957817 8.4699204,18.3681197 8.57044144,18.1719274 L8.57044144,18.1713103 Z" id="路径"></path>
                        <path d="M19.1276951,7.40426906 C19.1276951,8.50647349 19.5981103,9.5249524 20.3617399,10.0760546 C21.1253695,10.6271569 22.0662,10.6271569 22.8298297,10.0760546 C23.5934593,9.5249524 24.0638745,8.50647349 24.0638745,7.40426906 C24.0638745,6.30206463 23.5934593,5.28358572 22.8298297,4.7324835 C22.0662,4.18138127 21.1253695,4.18138127 20.3617399,4.7324835 C19.5981103,5.28358572 19.1276951,6.30206463 19.1276951,7.40426906 L19.1276951,7.40426906 Z" id="路径"></path>
                        <path d="M4.31915693,7.40426906 C4.31904167,8.50656951 4.7894317,9.52519878 5.55310865,10.0763906 C6.31678559,10.6275824 7.25770768,10.6275824 8.02138463,10.0763906 C8.78506157,9.52519878 9.2554516,8.50656951 9.25533634,7.40426906 C9.2554516,6.30196861 8.78506157,5.28333934 8.02138463,4.73214751 C7.25770768,4.18095569 6.31678559,4.18095569 5.55310865,4.73214751 C4.7894317,5.28333934 4.31904167,6.30196861 4.31915693,7.40426906 L4.31915693,7.40426906 Z" id="路径"></path>
                        <path d="M27.3421146,0 C28.0356478,0.228298278 28.3830314,0.571362757 28.3830314,1.02857635 C28.3830314,1.48517295 28.151648,1.71347123 27.6888812,1.71347127 C25.4305792,1.51293897 23.5795119,1.74123729 22.1356794,2.39960019 C20.6918469,3.05796312 19.4189297,4.08592248 18.3175446,5.48471229 C18.0337143,5.77224473 17.8023309,5.88577685 17.6240115,5.82715973 C17.4450749,5.76854261 17.3296917,5.54024429 17.2766278,5.14226485 L17.2766278,5.14164786 L17.3231123,5.09304624 C17.3333784,5.04894085 17.3535526,5.00642072 17.3839897,4.96888158 C18.7988222,3.22209109 20.337059,1.9368334 21.9987004,1.11619357 C23.5328265,0.3582082 25.1692026,-0.00121035701 26.903032,0.0369785268 L27.3421146,0 L27.3421146,0 Z M1.04091683,0 C1.18781099,0.0101846627 1.33397854,0.0224831283 1.47941916,0.0368957053 C3.21382879,-0.00121035701 4.85020499,0.3582082 6.38433102,1.11619357 C8.04597241,1.9368334 9.58420928,3.22209109 10.9990417,4.96888158 C11.0294788,5.00642072 11.049653,5.04894085 11.0599191,5.09304624 L11.1064036,5.14164786 C11.0533397,5.54024429 10.9379565,5.76854261 10.759637,5.82715973 C10.5807005,5.88577685 10.3493171,5.77224473 10.0654868,5.48471229 C8.96410176,4.08592248 7.6911845,3.05796312 6.24735204,2.39960019 C4.80351958,1.74123729 2.95245228,1.51293897 0.694150231,1.71347127 C0.231383396,1.71347123 0,1.48517295 0,1.02857635 C0,0.571362757 0.347383636,0.228298278 1.04091683,0 Z" id="形状结合" opacity="0.8"></path>
                    </g>
                </g>
            </g>
        </g>
    </g>
</svg>

