
<svg width="130px" height="130px" viewBox="0 0 130 130" version="1.1" xmlns="http://www.w3.org/2000/svg" xmlns:xlink="http://www.w3.org/1999/xlink">
    <g id="页面-1" stroke="none" stroke-width="1" fill="none" fill-rule="evenodd">
        <g id="编组-77" transform="translate(0.518416, 0.419160)" fill-rule="nonzero">
            <path d="M76.6673436,11.8442017 C84.7806435,27.6364707 97.2719982,37.122256 114.141408,40.3189309 C131.010817,43.5156058 133.512563,51.5941593 121.664018,64.5545912 C109.815473,77.5150232 105.055207,92.8555881 107.365847,110.628406 C109.659113,128.401223 103.092031,133.387341 87.6646002,125.604133 C72.2371692,117.820924 56.7923649,117.820924 41.3475606,125.604133 C25.9027563,133.387341 19.3530473,128.38385 21.6463141,110.628406 C23.9395809,92.8555881 19.179315,77.4976499 7.33076998,64.5545912 C-4.51777506,51.5941593 -1.99865624,43.5156058 14.8533799,40.3189309 C31.7227894,37.122256 44.214144,27.6364707 52.3274439,11.8442017 C60.4233706,-3.94806724 68.5540437,-3.94806724 76.6673436,11.8442017 L76.6673436,11.8442017 Z" id="路径备份-6" fill="#FED63A"></path>
            <g id="编组-62备份" transform="translate(27.000000, 44.556572)">
                <path d="M51.3121559,17.163238 C53.9707535,13.8428437 58.8543575,11.1271947 61.0565435,11.1271947 C63.8862954,11.1271947 69.4088757,14.287845 71.8849086,18.6123449 C72.1815761,19.1258079 72.72927,19.445296 73.3226051,19.4567063 C73.9159402,19.4567063 74.4750444,19.1486285 74.7717119,18.6351654 C75.0683795,18.1217024 75.0797898,17.4827262 74.7831222,16.9692631 C71.702344,11.5836063 65.0843758,7.79539003 61.0565435,7.79539003 C57.7589697,7.79539003 51.9625424,11.0130918 48.7106098,15.075155 C48.1515056,15.7940032 48.2770188,16.8323396 48.9844568,17.4028541 C49.6918948,17.9733686 50.7302311,17.8592657 51.3121559,17.163238 L51.3121559,17.163238 Z" id="路径" fill="#873A18"></path>
                <path d="M23.6878441,17.163238 C21.0292465,13.8428437 16.1456425,11.1271947 13.9434565,11.1271947 C11.1137046,11.1271947 5.59112431,14.287845 3.11509141,18.6123449 C2.81842387,19.1258079 2.27072995,19.445296 1.67739488,19.4567063 C1.08405981,19.4567063 0.524955601,19.1486285 0.228288063,18.6351654 C-0.0683794739,18.1217024 -0.0797897638,17.4827262 0.216877773,16.9692631 C3.29765604,11.5836063 9.91562418,7.79539003 13.9434565,7.79539003 C17.2410303,7.79539003 23.0374576,11.0130918 26.2893902,15.075155 C26.8484944,15.7940032 26.7229812,16.8323396 26.0155432,17.4028541 C25.3081052,17.9733686 24.2697689,17.8592657 23.6878441,17.163238 L23.6878441,17.163238 Z" id="路径" fill="#873A18"></path>
                <g id="编组-66" transform="translate(8.707667, 34.741723)">
                    <path d="M28.7923334,28.7523086 C14.3055933,28.7523086 2.2517408,18.2466574 0.0400247569,4.42343209 C-0.29173265,2.10113024 1.47764019,0 3.91052784,0 L53.6741389,0 C56.1070265,0 57.8763994,2.10113024 57.544642,4.42343209 C55.3329259,18.2466574 43.2790735,28.7523086 28.7923334,28.7523086 L28.7923334,28.7523086 Z" id="路径备份-10" fill="#873A18"></path>
                    <path d="M53.6741389,0 L3.91052784,0 C1.47764019,0 -0.29173265,2.10113024 0.0400247569,4.42343209 C0.150610559,5.19753271 0.261196362,5.97163333 0.482367966,6.74573394 L56.991713,6.74573394 C57.2128846,5.97163333 57.3234704,5.19753271 57.4340562,4.42343209 C57.8763994,2.10113024 55.9964407,0 53.6741389,0 Z" id="路径备份-11" fill="#FFFFFF"></path>
                    <path d="M36.9756827,13.3808821 C33.6581087,13.3808821 30.672292,15.0396691 28.7923334,17.5831426 C26.920469,14.9231634 23.8614522,13.3523169 20.608984,13.3808821 C15.4114513,13.3808821 11.098605,17.361971 10.6562618,22.4489179 C15.6326229,26.4300068 21.9360136,28.7523086 28.7923334,28.7523086 C35.6486531,28.7523086 41.9520438,26.4300068 46.9284049,22.4489179 C46.4860617,17.361971 42.1732154,13.3808821 36.9756827,13.3808821 L36.9756827,13.3808821 Z" id="路径备份-12" fill="#F44444"></path>
                </g>
            </g>
        </g>
    </g>
</svg>

