
<svg width="130px" height="130px" viewBox="0 0 130 130" version="1.1" xmlns="http://www.w3.org/2000/svg" xmlns:xlink="http://www.w3.org/1999/xlink">
    <g id="页面-1" stroke="none" stroke-width="1" fill="none" fill-rule="evenodd">
        <g id="编组-74" transform="translate(0.518416, 0.419160)" fill-rule="nonzero">
            <path d="M76.6673436,11.8442017 C84.7806435,27.6364707 97.2719982,37.122256 114.141408,40.3189309 C131.010817,43.5156058 133.512563,51.5941593 121.664018,64.5545912 C109.815473,77.5150232 105.055207,92.8555881 107.365847,110.628406 C109.659113,128.401223 103.092031,133.387341 87.6646002,125.604133 C72.2371692,117.820924 56.7923649,117.820924 41.3475606,125.604133 C25.9027563,133.387341 19.3530473,128.38385 21.6463141,110.628406 C23.9395809,92.8555881 19.179315,77.4976499 7.33076998,64.5545912 C-4.51777506,51.5941593 -1.99865624,43.5156058 14.8533799,40.3189309 C31.7227894,37.122256 44.214144,27.6364707 52.3274439,11.8442017 C60.4233706,-3.94806724 68.5540437,-3.94806724 76.6673436,11.8442017 L76.6673436,11.8442017 Z" id="路径备份-9" fill="#FED63A"></path>
            <g id="编组-73" transform="translate(25.500000, 49.491223)" fill="#873A18">
                <path d="M23.5526087,49.9369564 C26.4742174,44.2395651 32.9397392,40.6956521 39.3425217,40.6956521 C45.7181739,40.6956521 51.8971304,44.2124347 54.4066956,49.8623478 C54.7869077,50.718293 55.7890112,51.1039509 56.6449564,50.7237389 C57.5009017,50.3435269 57.8865597,49.3414235 57.5063478,48.4854782 C54.4185652,41.5333043 46.9865217,37.3043478 39.3425217,37.3043478 C31.7239565,37.3043478 24.0646956,41.4993913 20.5343478,48.3922174 C20.2581038,48.9313777 20.2904825,49.5769569 20.6192871,50.0857714 C20.9480917,50.5945859 21.523369,50.8893347 22.1284176,50.8589888 C22.7334661,50.8286429 23.2763647,50.4778125 23.5526087,49.9386521 L23.5526087,49.9369564 Z" id="路径"></path>
                <path d="M52.5652173,20.3478261 C52.5652173,23.376817 53.8579751,26.1757201 55.9565216,27.6902156 C58.0550681,29.2047111 60.640584,29.2047111 62.7391305,27.6902156 C64.837677,26.1757201 66.1304348,23.376817 66.1304348,20.3478261 C66.1304348,17.3188351 64.837677,14.519932 62.7391305,13.0054365 C60.640584,11.490941 58.0550681,11.490941 55.9565216,13.0054365 C53.8579751,14.519932 52.5652173,17.3188351 52.5652173,20.3478261 L52.5652173,20.3478261 Z" id="路径"></path>
                <path d="M11.8695652,20.3478261 C11.8692484,23.3770809 13.161937,26.1763972 15.2606136,27.691139 C17.3592901,29.2058807 19.9450577,29.2058807 22.0437342,27.691139 C24.1424107,26.1763972 25.4350994,23.3770809 25.4347826,20.3478261 C25.4350994,17.3185712 24.1424107,14.5192549 22.0437342,13.0045132 C19.9450577,11.4897714 17.3592901,11.4897714 15.2606136,13.0045132 C13.161937,14.5192549 11.8692484,17.3185712 11.8695652,20.3478261 L11.8695652,20.3478261 Z" id="路径"></path>
                <path d="M75.1394348,0 C77.0453478,0.627391254 78,1.5701739 78,2.82665211 C78,4.08143473 77.3641305,4.70882599 76.0923913,4.7088261 C69.8863044,4.15773911 64.7993478,4.78513048 60.8315217,6.59439127 C56.8636956,8.40365217 53.3655652,11.2286087 50.3388261,15.0726521 C49.558826,15.862826 48.9229565,16.174826 48.4329131,16.0137391 C47.9411739,15.8526521 47.6240869,15.2252608 47.4782608,14.1315652 L47.4782608,14.1298696 L47.6064915,13.9942316 C47.6348519,13.8737662 47.6901367,13.7576603 47.7733043,13.655087 C51.6614348,8.85469565 55.8886956,5.3226522 60.4550869,3.06743481 C64.6712596,0.984296187 69.1684559,-0.00342410292 73.9334911,0.101637071 C74.333384,0.0618437195 74.7354093,0.0280124352 75.1394348,0 Z M2.86056522,0 C3.2645907,0.0280124352 3.66661596,0.0618437195 4.06664014,0.101494703 C8.83154414,-0.00342410292 13.3287404,0.984296187 17.5449131,3.06743481 C22.1113044,5.3226522 26.3385652,8.85469565 30.2266956,13.655087 C30.3098631,13.7576603 30.3651479,13.8737662 30.3935084,13.9942316 L30.5217392,14.1298696 C30.3759131,15.2252608 30.0588261,15.8526521 29.5687826,16.0137391 C29.0770435,16.174826 28.441174,15.862826 27.6611739,15.0726521 C24.6344348,11.2286087 21.1363044,8.40365217 17.1684783,6.59439127 C13.2006522,4.78513048 8.11369562,4.15773911 1.90760871,4.7088261 C0.635869532,4.70882599 0,4.08143473 0,2.82665211 C0,1.5701739 0.954652207,0.627391254 2.86056522,0 Z" id="形状结合" opacity="0.8"></path>
            </g>
        </g>
    </g>
</svg>

