
<svg width="48px" height="48px" viewBox="0 0 48 48" version="1.1" xmlns="http://www.w3.org/2000/svg" xmlns:xlink="http://www.w3.org/1999/xlink">
    <g id="页面-1" stroke="none" stroke-width="1" fill="none" fill-rule="evenodd">
        <g id="1.-赛事评测备份-2" transform="translate(-796.000000, -315.000000)">
            <g id="编组-69" transform="translate(730.075270, 234.500000)">
                <g id="编组-59" transform="translate(66.227073, 81.000000)">
                    <g id="编组-75" fill-rule="nonzero">
                        <path d="M27.8980977,4.30992756 C30.850406,10.0564976 35.3958228,13.5082328 41.5343482,14.6714549 C47.6728736,15.834677 48.5832213,18.7743416 44.2717133,23.4904486 C39.9602052,28.2065556 38.2280158,33.7887574 39.0688231,40.2560194 C39.9033085,46.7232815 37.5136457,48.5376551 31.8998347,45.7054621 C26.2860236,42.8732692 20.6658907,42.8732692 15.0457578,45.7054621 C9.42562494,48.5376551 7.04228399,46.7169596 7.87676941,40.2560194 C8.71125484,33.7887574 6.9790654,28.2002338 2.66755737,23.4904486 C-1.64395066,18.7743416 -0.727281064,15.834677 5.40492244,14.6714549 C11.5434478,13.5082328 16.0888646,10.0564976 19.0411729,4.30992756 C21.9871593,-1.43664252 24.9457895,-1.43664252 27.8980977,4.30992756 L27.8980977,4.30992756 Z" id="路径备份-8" fill="#D4DBE2"></path>
                        <path d="M22.9640437,35.3895449 C25.1180585,35.3895449 28.3506529,36.1578626 32.6597306,37.6955462 C32.7236698,37.3045741 32.7572116,36.9041685 32.7572116,36.4974737 C32.7572116,31.866604 28.4664771,28.1120147 23.1736802,28.1120147 C17.8803592,28.1120147 13.5901488,31.866604 13.5901488,36.4974737 C13.5901488,36.9041685 13.6231665,37.3045741 13.6871057,37.6955462 C17.810131,36.1578626 20.902269,35.3895449 22.9635196,35.3895449 L22.9640437,35.3895449 Z" id="路径" fill="#889AAB"></path>
                        <path d="M23.2156075,33.5625626 C25.4566214,33.5625626 27.4361138,34.6809737 28.6263249,36.3905591 C26.2710591,35.7228669 24.3832827,35.3895449 22.9640437,35.3895449 C21.6716349,35.3895449 19.9741035,35.6914215 17.8719738,36.2956986 C19.1101546,34.5787733 21.0982641,33.561805 23.2150834,33.5625626 L23.2156075,33.5625626 Z" id="路径" fill="#A5B4C3"></path>
                        <path d="M18.7624047,16.8524397 C18.9036978,16.8145059 19.0542745,16.8342829 19.1809799,16.9074162 C19.3076852,16.9805495 19.4001297,17.1010422 19.4379582,17.2423636 L19.4893192,17.4341809 C19.5730078,17.7462001 19.4427773,18.0762451 19.1685754,18.2470464 C18.5063117,18.6615138 17.8143815,19.0265727 17.0984152,19.3392524 C18.037907,19.5045867 18.7473186,20.2833546 18.8245564,21.2341514 C18.9017942,22.1849483 18.3273808,23.0680075 17.426893,23.3828122 C16.5264051,23.6976168 15.5269229,23.3647814 14.9949514,22.5729564 C14.46298,21.7811315 14.5326689,20.7299951 15.1645187,20.01533 C13.8684412,20.360182 12.6839951,20.4597593 11.6122286,20.3145861 C11.3191523,20.2750858 11.0784361,20.0635035 11.0016624,19.7779167 L10.9335306,19.521112 C10.8916117,19.3646252 10.9283651,19.1975277 11.0320776,19.0730727 C11.1357901,18.9486177 11.2935207,18.8823345 11.4550013,18.8953472 C12.5817973,18.9881113 13.7159307,18.8853894 14.8076126,18.5913743 C15.9658541,18.2811123 17.2393957,17.7203347 18.6266651,16.9090416 C18.6691165,16.8844093 18.7147124,16.8650179 18.7624047,16.8524397 L18.7624047,16.8524397 Z M28.1782269,16.8524397 C28.0369338,16.8145059 27.8863571,16.8342829 27.7596517,16.9074162 C27.6329464,16.9805495 27.5405019,17.1010422 27.5026734,17.2423636 L27.4513125,17.4341809 C27.3676238,17.7462001 27.4978543,18.0762451 27.7720563,18.2470464 C28.4343199,18.6615138 29.1262501,19.0265727 29.8422164,19.3392524 C28.7721365,19.5283023 28.0239,20.5036856 28.1185305,21.5862086 C28.2131609,22.6687315 29.1192846,23.4994964 30.2059357,23.5000123 C31.0305928,23.5001674 31.7787327,23.0168291 32.1175659,22.264997 C32.456399,21.513165 32.3229724,20.6325251 31.776637,20.0148059 C33.0721904,20.360182 34.2561124,20.4602834 35.328403,20.3145861 C35.6212793,20.2748897 35.8617456,20.0633454 35.9384451,19.7779167 L36.0076251,19.521112 C36.0495847,19.3645296 36.0127719,19.1973228 35.908932,19.0728401 C35.8050922,18.9483574 35.6471993,18.882152 35.4856303,18.8953472 C34.3589251,18.9882756 33.2246371,18.8854325 32.133019,18.5913743 C30.9747775,18.2811123 29.7012359,17.7203347 28.3139665,16.9090416 C28.2714507,16.8841972 28.2257981,16.8651606 28.1782269,16.8524397 L28.1782269,16.8524397 Z" id="形状" fill="#889AAB"></path>
                    </g>
                    <g id="编组-70" transform="translate(10.916551, 16.833582)"></g>
                </g>
            </g>
        </g>
    </g>
</svg>

