
<svg width="130px" height="130px" viewBox="0 0 130 130" version="1.1" xmlns="http://www.w3.org/2000/svg" xmlns:xlink="http://www.w3.org/1999/xlink">
    <g id="页面-1" stroke="none" stroke-width="1" fill="none" fill-rule="evenodd">
        <g id="编组-78" transform="translate(0.518416, 0.419160)" fill-rule="nonzero">
            <path d="M76.6673436,11.8442017 C84.7806435,27.6364707 97.2719982,37.122256 114.141408,40.3189309 C131.010817,43.5156058 133.512563,51.5941593 121.664018,64.5545912 C109.815473,77.5150232 105.055207,92.8555881 107.365847,110.628406 C109.659113,128.401223 103.092031,133.387341 87.6646002,125.604133 C72.2371692,117.820924 56.7923649,117.820924 41.3475606,125.604133 C25.9027563,133.387341 19.3530473,128.38385 21.6463141,110.628406 C23.9395809,92.8555881 19.179315,77.4976499 7.33076998,64.5545912 C-4.51777506,51.5941593 -1.99865624,43.5156058 14.8533799,40.3189309 C31.7227894,37.122256 44.214144,27.6364707 52.3274439,11.8442017 C60.4233706,-3.94806724 68.5540437,-3.94806724 76.6673436,11.8442017 L76.6673436,11.8442017 Z" id="路径备份-5" fill="#FED63A"></path>
            <g id="编组-61" transform="translate(14.000000, 37.978089)">
                <g id="编组-64" transform="translate(21.725548, 41.320206)">
                    <path d="M28.7923334,28.7523086 C14.3055933,28.7523086 2.2517408,18.2466574 0.0400247569,4.42343209 C-0.29173265,2.10113024 1.47764019,0 3.91052784,0 L53.6741389,0 C56.1070265,0 57.8763994,2.10113024 57.544642,4.42343209 C55.3329259,18.2466574 43.2790735,28.7523086 28.7923334,28.7523086 L28.7923334,28.7523086 Z" id="路径" fill="#873A18"></path>
                    <path d="M53.6741389,0 L3.91052784,0 C1.47764019,0 -0.29173265,2.10113024 0.0400247569,4.42343209 C0.150610559,5.19753271 0.261196362,5.97163333 0.482367966,6.74573394 L56.991713,6.74573394 C57.2128846,5.97163333 57.3234704,5.19753271 57.4340562,4.42343209 C57.8763994,2.10113024 55.9964407,0 53.6741389,0 Z" id="路径" fill="#FFFFFF"></path>
                    <path d="M36.9756827,13.3808821 C33.6581087,13.3808821 30.672292,15.0396691 28.7923334,17.5831426 C26.920469,14.9231634 23.8614522,13.3523169 20.608984,13.3808821 C15.4114513,13.3808821 11.098605,17.361971 10.6562618,22.4489179 C15.6326229,26.4300068 21.9360136,28.7523086 28.7923334,28.7523086 C35.6486531,28.7523086 41.9520438,26.4300068 46.9284049,22.4489179 C46.4860617,17.361971 42.1732154,13.3808821 36.9756827,13.3808821 L36.9756827,13.3808821 Z" id="路径" fill="#F44444"></path>
                </g>
                <path d="M10.4858212,30.6028391 C14.1351527,33.0357268 18.0056558,34.8050996 20.9914725,35.6897861 C22.7608453,36.2427151 24.0878749,36.4638867 24.8619756,36.2427151 C26.85252,35.9109577 32.2712243,31.7086972 36.362899,26.0688213 C39.1275441,22.308904 41.3392601,17.8854719 41.6710175,13.4620398 C42.0027749,9.2597793 40.3439879,5.16810461 36.6946564,2.62463116 C34.2617688,0.965844122 31.1653663,0.191743505 28.0689638,0.744672517 C24.1984607,1.40818733 21.2126441,3.84107498 19.6644428,7.04806325 C17.89507,5.38927622 15.5727682,4.17283239 13.1398805,3.84107498 C8.82703421,3.28814597 4.51418792,5.16810461 2.08130027,8.59626448 C-0.462173183,12.1350102 -0.572758985,16.5584423 1.19661385,20.4289453 C2.96598669,24.52062 6.50473236,27.9487799 10.4858212,30.6028391 Z" id="路径" fill="#F44444"></path>
                <path d="M65.1152076,25.8476496 C67.6586811,29.3863953 70.7550835,32.4827978 73.0773854,34.2521706 C74.5150008,35.3580286 75.7314446,36.0215435 76.5055452,36.1321293 C78.4960897,36.4638867 84.9100662,34.3627564 90.6605279,30.3816675 C94.531031,27.7276083 98.0697767,24.2994484 99.8391495,20.2077737 C101.608522,16.2266848 101.387351,11.8032528 98.9544631,8.15392127 C97.2956761,5.72103362 94.6416168,3.95166078 91.5452144,3.39873177 C87.7852971,2.73521696 84.1359656,4.06224659 81.5924922,6.60572004 C80.4866341,4.39400399 78.8278471,2.51404535 76.616131,1.29760153 C72.8562138,-0.692942913 68.2116101,-0.361185506 64.6728644,2.07170215 C61.1341187,4.6151756 59.4753317,8.81743609 59.8070891,13.0196966 C60.2494323,17.5537145 62.3505625,22.0877324 65.1152076,25.8476496 L65.1152076,25.8476496 Z" id="路径" fill="#F44444"></path>
            </g>
        </g>
    </g>
</svg>
