
<svg width="130px" height="130px" viewBox="0 0 130 130" version="1.1" xmlns="http://www.w3.org/2000/svg" xmlns:xlink="http://www.w3.org/1999/xlink">
    <g id="页面-1" stroke="none" stroke-width="1" fill="none" fill-rule="evenodd">
        <g id="编组-75" transform="translate(0.482471, 0.419160)" fill-rule="nonzero">
            <path d="M76.6673436,11.8442017 C84.7806435,27.6364707 97.2719982,37.122256 114.141408,40.3189309 C131.010817,43.5156058 133.512563,51.5941593 121.664018,64.5545912 C109.815473,77.5150232 105.055207,92.8555881 107.365847,110.628406 C109.659113,128.401223 103.092031,133.387341 87.6646002,125.604133 C72.2371692,117.820924 56.7923649,117.820924 41.3475606,125.604133 C25.9027563,133.387341 19.3530473,128.38385 21.6463141,110.628406 C23.9395809,92.8555881 19.179315,77.4976499 7.33076998,64.5545912 C-4.51777506,51.5941593 -1.99865624,43.5156058 14.8533799,40.3189309 C31.7227894,37.122256 44.214144,27.6364707 52.3274439,11.8442017 C60.4233706,-3.94806724 68.5540437,-3.94806724 76.6673436,11.8442017 L76.6673436,11.8442017 Z" id="路径备份-8" fill="#FED63A"></path>
            <path d="M63.107967,97.2547457 C69.0274598,97.2547457 77.9110199,99.3661755 89.7528862,103.591916 C89.9285986,102.517477 90.0207757,101.417114 90.0207757,100.299468 C90.0207757,87.5732783 78.2293187,77.2552134 63.6840733,77.2552134 C49.1373877,77.2552134 37.347371,87.5732783 37.347371,100.299468 C37.347371,101.417114 37.4381077,102.517477 37.6138202,103.591916 C48.9443921,99.3661755 57.4419609,97.2547457 63.1065267,97.2547457 L63.107967,97.2547457 Z" id="路径" fill="#873A18"></path>
            <path d="M63.7992946,92.2339776 C69.9578716,92.2339776 75.3977559,95.3075062 78.6685998,100.005654 C72.1960448,98.1707548 67.008207,97.2547457 63.107967,97.2547457 C59.5562712,97.2547457 54.89125,98.0843389 49.1143434,99.7449655 C52.517014,95.0266472 57.9805792,92.2318956 63.7978543,92.2339776 L63.7992946,92.2339776 Z" id="路径" fill="#F44444"></path>
            <path d="M51.5613552,46.3125407 C51.9496457,46.208294 52.3634488,46.2626437 52.7116504,46.4636227 C53.059852,46.6646017 53.3139006,46.9957304 53.417858,47.3840985 L53.559004,47.9112358 C53.7889906,48.7687022 53.4311013,49.6757059 52.6775613,50.1450882 C50.8575808,51.2840949 48.956073,52.2873207 46.988511,53.1466024 C49.570348,53.600961 51.5198969,55.7411093 51.7321557,58.354014 C51.9444145,60.9669186 50.365857,63.3936719 47.8912076,64.2587932 C45.4165582,65.1239146 42.6698602,64.2092424 41.2079384,62.0332119 C39.7460166,59.8571813 39.9375303,56.9685315 41.6739298,55.0045454 C38.1121522,55.9522404 34.8571512,56.2258909 31.9118075,55.8269372 C31.1063983,55.7183856 30.4448811,55.136932 30.2338977,54.352105 L30.0466631,53.6463747 C29.9314651,53.2163299 30.0324679,52.7571257 30.3174824,52.4151084 C30.6024968,52.0730911 31.0359594,51.8909367 31.4797277,51.9266972 C34.5762994,52.1816242 37.6930348,51.8993321 40.6931087,51.0913429 C43.8760963,50.2387055 47.3759425,48.697621 51.1883263,46.4680894 C51.3049879,46.4003969 51.430291,46.3471071 51.5613552,46.3125407 L51.5613552,46.3125407 Z M77.4371725,46.3125407 C77.0488819,46.208294 76.6350788,46.2626437 76.2868773,46.4636227 C75.9386757,46.6646017 75.6846271,46.9957304 75.5806697,47.3840985 L75.4395236,47.9112358 C75.2095371,48.7687022 75.5674263,49.6757059 76.3209664,50.1450882 C78.1409469,51.2840949 80.0424547,52.2873207 82.0100167,53.1466024 C79.0693078,53.6661343 77.0130635,56.3466056 77.2731194,59.3215095 C77.5331752,62.2964134 80.0233127,64.5794557 83.0095612,64.5808735 C85.2758186,64.5812997 87.3317973,63.2530275 88.2629518,61.1869022 C89.1941064,59.1207769 88.8274337,56.7006722 87.3260382,55.0031051 C90.8863755,55.9522404 94.1399362,56.2273312 97.0867202,55.8269372 C97.8915797,55.7178467 98.5524103,55.1364975 98.7631897,54.352105 L98.9533048,53.6463747 C99.0686148,53.2160673 98.9674486,52.7565627 98.6820842,52.4144692 C98.3967198,52.0723757 97.9628111,51.8904352 97.5188,51.9266972 C94.422478,52.1820757 91.3053173,51.8994505 88.305419,51.0913429 C85.1224313,50.2387055 81.6225852,48.697621 77.8102013,46.4680894 C77.6933626,46.3998141 77.5679038,46.3474993 77.4371725,46.3125407 L77.4371725,46.3125407 Z" id="形状" fill="#873A18"></path>
        </g>
    </g>
</svg>

