<svg width="376px" height="44px" viewBox="0 0 376 44" version="1.1" xmlns="http://www.w3.org/2000/svg" xmlns:xlink="http://www.w3.org/1999/xlink">
    <g id="页面-1" stroke="none" stroke-width="1" fill="none" fill-rule="evenodd">
        <g id="1.-赛事评测备份-2" transform="translate(-949.000000, -538.000000)">
            <g id="Status-Bar" transform="translate(949.500000, 538.000000)">
                <polygon id="Rectangle-29" fill="#FFFFFF" opacity="0" points="0 0 375 0 375 44 0 44"></polygon>
                <g id="Status-Bar-–-Battery" transform="translate(332.000000, 12.000000)">
                    <rect id="Bounds" fill="#FA3E3E" opacity="0" x="0" y="0" width="27" height="20"></rect>
                    <path d="M4.5,4.5 L21.5,4.5 C22.8807119,4.5 24,5.61928813 24,7 L24,13.5 C24,14.8807119 22.8807119,16 21.5,16 L4.5,16 C3.11928813,16 2,14.8807119 2,13.5 L2,7 C2,5.61928813 3.11928813,4.5 4.5,4.5 Z M21.5,5.5 C22.3284271,5.5 23,6.17157288 23,7 L23,7 L23,13.5 C23,14.3284271 22.3284271,15 21.5,15 L21.5,15 L4.5,15 C3.67157288,15 3,14.3284271 3,13.5 L3,13.5 L3,7 C3,6.17157288 3.67157288,5.5 4.5,5.5 L4.5,5.5 Z M25,7.83445549 C25.7472517,8.26671726 26.25,9.07464705 26.25,10 C26.25,10.9253529 25.7472517,11.7332827 25,12.1655445 L25,7.83445549 Z" id="Body" fill="#000000"></path>
                    <path d="M5,6.5 L21,6.5 C21.5522847,6.5 22,6.94771525 22,7.5 L22,13 C22,13.5522847 21.5522847,14 21,14 L5,14 C4.44771525,14 4,13.5522847 4,13 L4,7.5 C4,6.94771525 4.44771525,6.5 5,6.5 Z" id="Reserve" fill="#000000"></path>
                </g>
                <g id="Status-Bar-–-Wi–Fi" transform="translate(288.000000, 12.000000)">
                    <g id="编组-60">
                        <rect id="Bounds" fill="#FA3E3E" opacity="0" x="0" y="0" width="20" height="20"></rect>
                        <g id="Status-Bar-–-Service" transform="translate(1.000000, 5.250000)" fill="#000000">
                            <path d="M2,6.75 C2.55228475,6.75 3,7.19771525 3,7.75 L3,9.5 C3,10.0522847 2.55228475,10.5 2,10.5 L1,10.5 C0.44771525,10.5 3.38176876e-17,10.0522847 0,9.5 L0,7.75 C-6.76353751e-17,7.19771525 0.44771525,6.75 1,6.75 L2,6.75 Z M6.75,4.75 C7.30228475,4.75 7.75,5.19771525 7.75,5.75 L7.75,9.5 C7.75,10.0522847 7.30228475,10.5 6.75,10.5 L5.75,10.5 C5.19771525,10.5 4.75,10.0522847 4.75,9.5 L4.75,5.75 C4.75,5.19771525 5.19771525,4.75 5.75,4.75 L6.75,4.75 Z M11.5,2.25 C12.0522847,2.25 12.5,2.69771525 12.5,3.25 L12.5,9.5 C12.5,10.0522847 12.0522847,10.5 11.5,10.5 L10.5,10.5 C9.94771525,10.5 9.5,10.0522847 9.5,9.5 L9.5,3.25 C9.5,2.69771525 9.94771525,2.25 10.5,2.25 L11.5,2.25 Z M16.25,0 C16.8022847,-1.01453063e-16 17.25,0.44771525 17.25,1 L17.25,9.5 C17.25,10.0522847 16.8022847,10.5 16.25,10.5 L15.25,10.5 C14.6977153,10.5 14.25,10.0522847 14.25,9.5 L14.25,1 C14.25,0.44771525 14.6977153,6.76353751e-17 15.25,0 L16.25,0 Z" id="Signal"></path>
                        </g>
                    </g>
                    <g id="编组-29" transform="translate(21.000000, 0.000000)">
                        <rect id="Bounds" fill="#FA3E3E" opacity="0" x="0" y="0" width="20" height="20"></rect>
                        <path d="M10.3807556,12.1482691 C11.1441272,12.1482691 11.8786266,12.3799945 12.4989071,12.8127778 C12.5813653,12.8703106 12.5918382,12.988535 12.5207819,13.059714 L10.4790227,15.105 L10.2508213,15.105 L8.22211219,13.0727866 C8.15135185,13.001904 8.16139511,12.8842613 8.24314272,12.8264435 C8.86730659,12.3849898 9.60924176,12.1482691 10.3807556,12.1482691 Z M10.3807556,8.37663454 C12.1544013,8.37663454 13.8469012,8.99832445 15.1934176,10.1343606 L15.2035698,10.3722921 L13.9805893,11.5973851 L13.7658473,11.6094371 C12.8051017,10.8415291 11.6197657,10.4240933 10.3807556,10.4240933 C9.13422469,10.4240933 7.94212128,10.8466442 6.97858544,11.6231395 L6.76333827,11.6114929 L5.54077391,10.3868168 L5.55054935,10.1492041 C6.89964606,9.00391303 8.59920689,8.37663454 10.3807556,8.37663454 Z M10.3807556,4.605 C13.1608126,4.605 15.8062548,5.6212128 17.8657928,7.46400173 L17.8723994,7.69885252 L16.6530061,8.92035208 L16.4326707,8.9277224 C14.7572274,7.4597476 12.6221124,6.65245875 10.3807556,6.65245875 C8.13179908,6.65245875 5.98992523,7.46526925 4.31225487,8.94228586 L4.09163001,8.93516974 L2.87239941,7.71383313 L2.87876401,7.47919928 C4.94045976,5.62699428 7.59285554,4.605 10.3807556,4.605 Z" id="Wi–Fi" fill="#000000" fill-rule="nonzero"></path>
                    </g>
                </g>
                <g id="Time" transform="translate(16.000000, 12.000000)" fill="#000000" font-family="PingFangSC-Medium, PingFang SC" font-size="14" font-weight="400" letter-spacing="-0.224" line-spacing="20">
                    <text id="1:20">
                        <tspan x="0.288" y="15">1:20</tspan>
                    </text>
                </g>
            </g>
        </g>
    </g>
</svg>
